<svg id="Flat" height="512" viewBox="0 0 64 64" width="512" xmlns="http://www.w3.org/2000/svg"><g id="Color_1_"><g><path d="m32 3c-3.866 0-7 3.134-7 7v3h4v-3c0-1.657 1.343-3 3-3 1.657 0 3 1.343 3 3v3h4v-3c0-3.866-3.134-7-7-7z" fill="#ef5350"/><path d="m29 10c0-1.657 1.343-3 3-3s3 1.343 3 3v3h4v-2.713c-1.069-.457-1.957-1.278-2.445-2.353-.787-1.731-2.53-2.934-4.555-2.934-1.949 0-3.638 1.116-4.463 2.743-.549 1.084-1.446 1.935-2.537 2.39v2.867h4z" fill="#e53935"/><g><path d="m54 8-7-1 3.614 7.951c.913 2.009 1.386 4.191 1.386 6.399 0 2.401-.559 4.768-1.633 6.916l-5.367 10.734h6l2.64-4.837c2.205-4.04 3.36-8.569 3.36-13.171v-.161c0-3.86-.779-7.65-2.286-11.166-.412-.961-.714-1.665-.714-1.665z" fill="#e53935"/><path d="m52.98 29.92c0 1.1.49 2.17 1.36 2.87-.22.46-.45.92-.7 1.37l-2.64 4.84h-6l5.37-10.73c1.07-2.15 1.63-4.52 1.63-6.92 0-2.21-.47-4.39-1.39-6.4l-3.61-7.95 7 1s.11.27.3.7c-1.57.82-2.27 2.76-1.51 4.43l.82 1.82c.92 2.01 1.39 4.19 1.39 6.4 0 2.4-.56 4.77-1.63 6.92-.27.53-.39 1.1-.39 1.65z" fill="#c62828"/><path d="m40 15 1.869-4.985c.715-1.907 2.253-3.389 4.186-4.033 1.869-.623 3.918-.398 5.607.616l2.338 1.402c-5.04.59-9.054 4.493-9.784 9.514l-.216 1.486z" fill="#ef5350"/><path d="m44.767 9.791c-.759.949-2.042 1.183-3.071.687l-1.696 4.522 4 4 .216-1.486c.73-5.021 4.744-8.924 9.784-9.514l-3.461-.495c-2.193-.313-4.388.557-5.772 2.286z" fill="#e53935"/></g><g><path d="m10 8 7-1-3.614 7.951c-.913 2.009-1.386 4.191-1.386 6.399 0 2.401.559 4.768 1.633 6.916l5.367 10.734h-6l-2.64-4.837c-2.205-4.04-3.36-8.569-3.36-13.171v-.161c0-3.86.779-7.65 2.286-11.166.412-.961.714-1.665.714-1.665z" fill="#e53935"/><path d="m11.02 29.92c0 1.1-.49 2.17-1.36 2.87.22.46.45.92.7 1.37l2.64 4.84h6l-5.37-10.73c-1.07-2.15-1.63-4.52-1.63-6.92 0-2.21.47-4.39 1.39-6.4l3.61-7.95-7 1s-.11.27-.3.7c1.57.82 2.27 2.76 1.51 4.43l-.82 1.82c-.92 2.01-1.39 4.19-1.39 6.4 0 2.4.56 4.77 1.63 6.92.27.53.39 1.1.39 1.65z" fill="#c62828"/><path d="m24 15-1.869-4.985c-.715-1.907-2.253-3.389-4.186-4.033-1.869-.623-3.918-.398-5.607.616l-2.338 1.402c5.04.59 9.054 4.493 9.784 9.514l.216 1.486z" fill="#ef5350"/><path d="m19.233 9.791c.759.949 2.042 1.183 3.071.687l1.696 4.522-4 4-.216-1.486c-.73-5.021-4.744-8.924-9.784-9.514l3.461-.495c2.193-.313 4.388.557 5.772 2.286z" fill="#e53935"/></g><path d="m47 35h-30v-9c0-8.284 6.716-15 15-15 8.284 0 15 6.716 15 15z" fill="#48cae4"/><path d="m45 61h-26c-2.761 0-5-2.239-5-5v-18c0-1.657 1.343-3 3-3h30c1.657 0 3 1.343 3 3v18c0 2.761-2.239 5-5 5z" fill="#ade8f4"/><path d="m50 56v-12h5v7c0 2.761-2.239 5-5 5z" fill="#48cae4"/><path d="m55 44h-5v-6c2.761 0 5 2.239 5 5z" fill="#ef5350"/><path d="m14 56v-12h-5v7c0 2.761 2.239 5 5 5z" fill="#48cae4"/><path d="m9 44h5v-6c-2.761 0-5 2.239-5 5z" fill="#ef5350"/><path d="m44 30c-10.006 0-18.363-7.005-20.472-16.374-3.94 2.703-6.528 7.235-6.528 12.374v9h30v-5z" fill="#00b4d8"/><path d="m32 19 1.854 3.757 4.146.602-3 2.925.708 4.129-3.708-1.95-3.708 1.95.708-4.129-3-2.925 4.146-.602z" fill="#fcf2ad"/><path d="m35.71 30.41-3.71-1.95-3.71 1.95.71-4.13-3-2.92 2.37-.34c1.93 2.15 4.29 3.9 6.95 5.1z" fill="#f9dbaf"/><path d="m50 53v3c0 2.76-2.24 5-5 5h-26c-2.76 0-5-2.24-5-5v-18c0-1.66 1.34-3 3-3h4.02c.52 10.02 8.82 18 18.98 18z" fill="#48cae4"/><path d="m41 56h-18c-1.105 0-2-.895-2-2v-10c0-1.105.895-2 2-2h18c1.105 0 2 .895 2 2v10c0 1.105-.895 2-2 2z" fill="#ff7373"/><path d="m43 53v1c0 1.1-.9 2-2 2h-18c-1.1 0-2-.9-2-2v-10c0-1.02.78-1.87 1.77-1.99 3.02 6.49 9.6 10.99 17.23 10.99z" fill="#ef5350"/><path d="m54.92 51.85c-.4 2.36-2.45 4.15-4.92 4.15v-12h2v4c0 1.83 1.23 3.38 2.92 3.85z" fill="#00b4d8"/><path d="m52 38.41v5.59h-2v-6c.71 0 1.39.15 2 .41z" fill="#e53935"/><path d="m9.08 51.85c.4 2.36 2.45 4.15 4.92 4.15v-12h-2v4c0 1.83-1.23 3.38-2.92 3.85z" fill="#00b4d8"/><path d="m12 38.41v5.59h2v-6c-.71 0-1.39.15-2 .41z" fill="#e53935"/><path d="m38 48h-12c-.552 0-1-.448-1-1s.448-1 1-1h12c.552 0 1 .448 1 1s-.448 1-1 1z" fill="#d0d8da"/><path d="m36 51c-.552 0-1-.448-1-1v-3c0-.552.448-1 1-1s1 .448 1 1v3c0 .552-.448 1-1 1z" fill="#e9f1f2"/><path d="m43 32c-.552 0-1-.448-1-1v-5c0-5.514-4.486-10-10-10s-10 4.486-10 10v5c0 .552-.448 1-1 1s-1-.448-1-1v-5c0-6.617 5.383-12 12-12s12 5.383 12 12v5c0 .552-.448 1-1 1z" fill="#e9f1f2"/><g fill="#d0d8da"><path d="m21 32c.552 0 1-.448 1-1v-5c0-2.947 1.289-5.592 3.324-7.424-.317-.618-.594-1.258-.85-1.909-2.725 2.201-4.474 5.565-4.474 9.333v5c0 .552.448 1 1 1z"/><path d="m42 31c0 .552.448 1 1 1s1-.448 1-1v-1c-.675 0-1.341-.038-2-.1z"/></g><path d="m26 48h1.173c-.616-.565-1.194-1.167-1.731-1.808-.26.181-.442.467-.442.808 0 .552.448 1 1 1z" fill="#b8bebf"/></g></g></svg>