<svg id="Layer_3" enable-background="new 0 0 64 64" height="512" viewBox="0 0 64 64" width="512" xmlns="http://www.w3.org/2000/svg"><path d="m57 58h6v5h-6z" fill="#b4d3e0"/><path d="m60 58h3v5h-3z" fill="#77848c"/><path d="m63 52v6h-6-8c-2.21 0-4-1.79-4-4v-2h8 4c1.1 0 2-.9 2-2v-14h4z" fill="#a0a0a0"/><path d="m54 48v3c0 .55-.45 1-1 1h-8-2c-.55 0-1-.45-1-1v-3c0-.55.45-1 1-1h5 5c.55 0 1 .45 1 1z" fill="#b4d3e0"/><path d="m54 48v3c0 .55-.45 1-1 1h-10c-.55 0-1-.45-1-1v-1h7c.55 0 1-.45 1-1v-2h3c.55 0 1 .45 1 1z" fill="#77848c"/><path d="m48 44c.55 0 1-.45 1-1s-.45-1-1-1-1 .45-1 1 .45 1 1 1zm3.87-2c.55 2.14-.74 4.32-2.87 4.87-.33.09-.67.13-1 .13-1.78 0-3.41-1.2-3.87-3-.55-2.14.74-4.32 2.87-4.87 2.14-.55 4.32.74 4.87 2.87z" fill="#77848c"/><path d="m52.79 33.51c.55 2.14-.74 4.32-2.88 4.87l-2.91.75-2.9.74c-2.14.55-4.32-.74-4.87-2.88l-.5-1.93 13.56-3.48z" fill="#b1b1b1"/><path d="m49.91 38.38-2.91.75-2.9.74c-.49.13-.99.16-1.47.1l2.28-.59c2.14-.55 3.43-2.73 2.88-4.87l-.43-1.66 4.93-1.27.5 1.93c.55 2.14-.74 4.32-2.88 4.87z" fill="#787878"/><path d="m27.12 1.9.99 3.88-7.74 1.99-1-3.88z" fill="#77848c"/><path d="m28.11 5.78-7.74 1.99c-.271-1.049.361-2.119 1.41-2.39l1.366-.352c.533-.137.855-.68.72-1.213l-.256-1.015 3.51-.9z" fill="#596369"/><path d="m10.72 18c.96 1.75 2 4.23 2.85 7.52 1.18 4.6 1.25 8 1.02 10.01-1.17-1.65-2.75-4.66-3.93-9.27-.89-3.46-1.15-6.24-1.13-8.26l-.05-.21 1.11-.28z" fill="#1de9b6"/><path d="m16.42 40.72c-.14.08-.29.14-.45.18-2.94.76-7.05-5.35-9.18-13.64-.76-2.96-1.17-5.8-1.24-8.26l.08-.62c.63.1 1.29.07 1.95-.1l1.9-.49.05.21c-.02 2.02.24 4.8 1.13 8.26 1.18 4.61 2.76 7.62 3.93 9.27.23-2.01.16-5.41-1.02-10.01-.85-3.29-1.89-5.77-2.85-7.52l-.13-.49 3.98-1.03.13.52c1.06 2.13 2.02 4.7 2.74 7.52 2.02 7.85 1.53 14.84-1.02 16.2z" fill="#a0a0a0"/><path d="m28.1 21.78c2.12 8.28 1.47 15.6-1.45 16.38-.01.01-.01.01-.02.01l-10.17 2.61-.04-.06c2.55-1.36 3.04-8.35 1.02-16.2-.72-2.82-1.68-5.39-2.74-7.52l-.13-.52 10.6-2.72.06.24c1.11 2.18 2.11 4.85 2.87 7.78z" fill="#686868"/><path d="m15.597 18.988c3.783-.186 7.555-.589 11.329-.996-.52-1.449-1.089-2.798-1.697-3.991l-.06-.24-10.6 2.72.131.519c.31.623.608 1.294.897 1.988z" fill="#4f565a"/><path d="m17.276 23.938c.053.196.114.383.164.582.153.594.286 1.181.411 1.763 3.6-.696 7.254-1.087 10.881-1.627-.107-.578-.232-1.165-.366-1.757-3.697.397-7.389.798-11.09 1.039z" fill="#586267"/><path d="m18.594 31.284c.376 4.802-.397 8.488-2.174 9.435l.04.06 10.17-2.61c.01 0 .01 0 .02-.01 1.93-.515 2.861-3.896 2.663-8.513-3.578.514-7.178.918-10.719 1.638z" fill="#4f565a"/><path d="m52.29 31.58-13.56 3.48-12.08 3.1c2.92-.78 3.57-8.1 1.45-16.38-.76-2.93-1.76-5.6-2.87-7.78l-.06-.24 2.75-.71c.41-.11.83-.16 1.24-.16 2.23 0 4.27 1.5 4.85 3.76.68 2.68 3.41 4.29 6.08 3.6l18.41-4.73v.01l1.49 5.81c1.1 4.28-1.48 8.64-5.76 9.74z" fill="#dee2e8"/><path d="m57.69 29.19c.11-.93.05-1.89-.2-2.85l-.496-1.936c-.549-2.14-2.728-3.43-4.868-2.881l-14.536 3.727c-2.67.69-5.4-.92-6.08-3.6-.56-2.18-2.48-3.65-4.61-3.75-.51-1.42-1.07-2.73-1.67-3.9l-.06-.24 2.75-.71c.41-.11.83-.16 1.24-.16 2.23 0 4.27 1.5 4.85 3.76.68 2.68 3.41 4.29 6.08 3.6l18.41-4.73v.01l1.49 5.81c.76 2.94-.22 5.92-2.3 7.85z" fill="#a2adb3"/><path d="m61.62 11.62.75 2.91-3.87.99-18.41 4.73c-2.67.69-5.4-.92-6.08-3.6-.58-2.26-2.62-3.76-4.85-3.76-.41 0-.83.05-1.24.16l-2.75.71-10.6 2.72-3.98 1.03-1.11.28-1.9.49c-.66.17-1.32.2-1.95.1-1.95-.27-3.62-1.69-4.14-3.7l-.49-1.94 19.37-4.97 7.74-1.99 16.47-4.23c7.49-1.93 15.12 2.59 17.04 10.07z" fill="#b6ebff"/><path d="m62.37 14.53-3.87.99-18.41 4.73c-2.56.66-5.17-.79-5.98-3.26l17.39-4.47.959-.245c1.607-.411 2.575-2.048 2.161-3.655-.78-3.03-2.49-5.57-4.76-7.4 5.5.71 10.3 4.7 11.76 10.4z" fill="#3cf"/><g fill="#fff"><path d="m20 20.667c-1.287 0-1.289 2 0 2 1.287 0 1.289-2 0-2z"/><path d="m21.5 23.167c-.643 0-.645 1 0 1 .643 0 .645-1 0-1z"/></g><circle cx="48" cy="43" fill="#333" r="1"/></svg>