<svg id="Capa_1" enable-background="new 0 0 512 512" height="512" viewBox="0 0 512 512" width="512" xmlns="http://www.w3.org/2000/svg"><g><path d="m463.777 109.428 10 80.168-10 80.168h-21.221c-9.856 0-17.846-7.99-17.846-17.846v-124.644c0-9.856 7.99-17.846 17.846-17.846z" fill="#7f78bd"/><ellipse cx="287.269" cy="168.59" fill="#ecb880" rx="36.569" ry="36.569" transform="matrix(.456 -.89 .89 .456 6.192 347.313)"/><path d="m287.269 132.021c-4.01 0-7.865.655-11.475 1.847 14.574 4.814 25.095 18.535 25.095 34.722s-10.521 29.908-25.095 34.722c3.61 1.193 7.465 1.847 11.475 1.847 20.197 0 36.569-16.373 36.569-36.569.001-20.197-16.372-36.569-36.569-36.569z" fill="#e5936a"/><path d="m222.523 99.205v118.699h-40.814v-42.761c0-17.13-13.888-31.019-31.019-31.019s-31.007 13.888-31.007 31.019v42.761h-40.814v-118.699l71.827-10z" fill="#77d1b3"/><path d="m201.634 99.205h20.889v118.699h-20.889z" fill="#61aab8"/><path d="m153.817 3.565 86.587 88.203c2.716 2.766.756 7.437-3.121 7.437h-173.173c-3.877 0-5.837-4.67-3.121-7.437l86.587-88.203c1.713-1.746 4.527-1.746 6.241 0z" fill="#e27f86"/><path d="m240.403 91.769-86.586-88.204c-1.714-1.746-4.527-1.746-6.242 0l-10.414 10.609 76.172 77.594c2.716 2.766.756 7.437-3.121 7.437h27.07c3.877 0 5.837-4.67 3.121-7.436z" fill="#cd5668"/><g fill="#e27f86"><path d="m294.77 359.743-23.427 135.817c-1.434 8.31-8.651 14.184-16.802 14.184-.968 0-1.935-.091-2.926-.262-9.289-1.594-15.527-10.428-13.922-19.728l22.426-130.011z"/><path d="m481.027 509.483c-.99.171-1.958.262-2.926.262-8.151 0-15.368-5.874-16.802-14.184l-23.427-135.817h34.651l22.426 130.011c1.606 9.3-4.633 18.134-13.922 19.728z"/></g><path d="m463.777 102.17v249.994h34.151v-249.994c0-9.43-7.645-17.075-17.075-17.075s-17.076 7.645-17.076 17.075z" fill="#ecb880"/><path d="m220.642 353.664v16.885c0 9.158 7.424 16.582 16.582 16.582h258.193c9.158 0 16.582-7.424 16.582-16.582v-16.885c0-9.158-7.424-16.582-16.582-16.582h-258.192c-9.159-.001-16.583 7.423-16.583 16.582z" fill="#9d6c6c"/><path d="m495.418 367.557h-258.193c-8.704 0-15.828-6.71-16.514-15.238-.036.445-.068.891-.068 1.344v16.885c0 9.158 7.424 16.582 16.582 16.582h258.193c9.158 0 16.582-7.424 16.582-16.582 0 0-.032-17.785-.068-18.229-.686 8.528-7.81 15.238-16.514 15.238z" fill="#8c5e5e"/><g fill="#ecb880"><path d="m52.703 509.744h-25.665c-2.642 0-4.73-2.242-4.542-4.877l19.004-266.623h50.491l-34.773 267.534c-.294 2.269-2.227 3.966-4.515 3.966z"/><path d="m330.863 509.744h25.665c2.642 0 4.73-2.242 4.542-4.877l-19.004-266.623h-50.491l34.773 267.534c.295 2.269 2.227 3.966 4.515 3.966z"/></g><path d="m0 209.852v42.639c0 3.143 2.548 5.692 5.692 5.692h372.183c3.143 0 5.692-2.548 5.692-5.692v-42.639c0-3.143-2.548-5.692-5.692-5.692h-372.183c-3.144 0-5.692 2.548-5.692 5.692z" fill="#9d6c6c"/><path d="m377.875 238.609h-372.183c-3.143 0-5.692-2.548-5.692-5.692v19.573c0 3.143 2.548 5.692 5.692 5.692h372.183c3.144 0 5.692-2.548 5.692-5.692v-19.573c-.001 3.144-2.549 5.692-5.692 5.692z" fill="#8c5e5e"/></g></svg>