<?xml version="1.0" encoding="utf-8"?>
<!-- Generator: Adobe Illustrator 27.0.0, SVG Export Plug-In . SVG Version: 6.00 Build 0)  -->
<svg version="1.1" id="Layer_1" xmlns="http://www.w3.org/2000/svg" xmlns:xlink="http://www.w3.org/1999/xlink" x="0px" y="0px"
	 viewBox="0 0 512 512" style="enable-background:new 0 0 512 512;" xml:space="preserve">
<style type="text/css">
	.st0{fill:#2D9739;}
	.st1{fill:#44BC59;}
	.st2{fill:#FFC239;}
	.st3{fill:#ABE4A3;}
	.st4{fill:#CDF8C8;}
	.st5{fill:#FFD55D;}
	.st6{fill:#F3A606;}
</style>
<g id="Artboard_23">
	<path class="st0" d="M67.8,496c-70.7-73-68.9-189.5,4.1-260.2c62.6-60.7,159.2-69.1,231.4-20.1l39.5,36.2c9,11.1,16.8,23.2,23,36.1
		L352,471.7c-5.9,8.6-12.5,16.8-19.8,24.3H67.8z"/>
	<path class="st1" d="M365.7,288c-6.2-12.9-14-25-23-36.1l-39.5-36.2l-0.7-0.5c-47.5-31.7-109.5-31.7-157,0
		C61.1,271.8,38.6,386.1,95.2,470.5c6.1,9.1,13,17.6,20.6,25.5h216.4c7.3-7.5,13.9-15.6,19.8-24.3L365.7,288z"/>
	<path class="st0" d="M355.8,270.1c-4-6.3-8.3-12.4-13-18.2l-17.7-16.2c-8.5,5.8-17.7,10.5-27.4,13.9l-35,11.9
		c-4,1.4-6.7,5.2-6.7,9.5v55c-0.1,5.4,4.2,9.9,9.6,10c1.9,0,3.7-0.5,5.3-1.4l35.1-22C324.5,300.8,341.3,286.5,355.8,270.1z"/>
	<path class="st2" d="M160,152h80c8.8,0,16,7.2,16,16l0,0c0,8.8-7.2,16-16,16h-80c-8.8,0-16-7.2-16-16l0,0
		C144,159.2,151.2,152,160,152z"/>
	<circle class="st3" cx="200" cy="344" r="96"/>
	<path class="st4" d="M200,248c-18.6,0-36.8,5.4-52.4,15.6c-29,44.3-16.6,103.8,27.7,132.8c31.9,20.9,73.2,20.9,105.1,0
		c29-44.3,16.5-103.8-27.8-132.8C237,253.4,218.7,248,200,248z"/>
	<path class="st0" d="M160,152l-22.2-40c-5.5-13.3,2-32,14.2-32h96c12.2,0,19.7,18.7,14.2,32L240,152H160z"/>
	<rect x="16" y="488" class="st2" width="480" height="16"/>
	<rect x="296" y="344" class="st2" width="32" height="128"/>
	<rect x="352" y="288" class="st2" width="32" height="184"/>
	<rect x="408" y="232" class="st2" width="32" height="240"/>
	<path class="st3" d="M293,320.7c-5.4-21.6-18.1-40.6-36-53.8c-0.6,1.3-1,2.7-1,4.1v55c-0.1,5.4,4.2,9.9,9.6,10
		c1.9,0,3.7-0.5,5.3-1.4L293,320.7z"/>
	<rect x="464" y="184" class="st2" width="32" height="288"/>
	<rect x="240" y="376" class="st2" width="32" height="96"/>
	<path class="st5" d="M160,152c-2.7,0-5.4,0.7-7.8,2.1C153.3,162,160,168,168,168h80c2.7,0,5.4-0.7,7.8-2.1
		C254.7,158,248,152,240,152H160z"/>
	<path class="st1" d="M262.2,112c5.5-13.3-2-32-14.2-32h-82.9c-6.6-0.1-12,5.1-12.2,11.7c0,1.4,0.2,2.8,0.7,4.2l0.1,0.2l11.8,21.3
		c6.4,11.5,18.6,18.7,31.8,18.7h51.6L262.2,112z"/>
	<path class="st5" d="M256,376v72c0,8.8,7.2,16,16,16v-88H256z"/>
	<path class="st5" d="M312,344v104c0,8.8,7.2,16,16,16V344H312z"/>
	<path class="st5" d="M368,288v160c0,8.8,7.2,16,16,16V288H368z"/>
	<path class="st5" d="M424,232v216c0,8.8,7.2,16,16,16V232H424z"/>
	<path class="st5" d="M480,184v264c0,8.8,7.2,16,16,16V184H480z"/>
	<path class="st6" d="M476,114.2c1.2,4.2-1.2,8.7-5.5,9.9c-1.4,0.4-3,0.4-4.4,0L424,112l0,0c-20.2,67-59.5,132.2-118,168.7l-35.1,22
		c-4.6,2.8-10.6,1.4-13.4-3.2c-1-1.6-1.5-3.4-1.4-5.3v-55c0-4.3,2.7-8.1,6.7-9.5l35-11.9c46.8-15.9,92.7-64.3,102.3-113.8
		l-35.7-17.8c-4-2-5.6-6.8-3.6-10.7c0.6-1.2,1.6-2.3,2.7-3.1l75.4-50.3c3.7-2.5,8.6-1.5,11.1,2.2c0.5,0.7,0.8,1.4,1,2.2L476,114.2z"
		/>
	<path class="st2" d="M270.9,282l35.1-22c54.3-34,92.1-92.6,113.4-154.5c2.8-8,11.3-12.4,19.4-10l27.3,7.8c2.2,0.6,4.6,0.3,6.5-1
		L451,26.5c-1.2-4.2-5.6-6.7-9.9-5.5c-0.8,0.2-1.5,0.6-2.2,1l-75.4,50.3c-3.7,2.4-4.7,7.4-2.2,11.1c0.8,1.2,1.8,2.1,3.1,2.7L400,104
		c-9.7,49.5-55.5,97.8-102.3,113.8l-35,11.9c-4,1.4-6.7,5.2-6.7,9.5v34.2c-0.1,5.4,4.2,9.9,9.6,10
		C267.4,283.4,269.3,282.9,270.9,282z"/>
</g>
<g id="layer1" transform="translate(0 -801.97)">
	<path id="path4158" class="st0" d="M209.5,1186.5l-35.2-44.1l0.2-8.7c16.5,1.1,29.4-0.6,32.4-16.3l-35.2-0.2l5.7-9.6l28.1,0.4
		c-4.3-8.9-16.1-10-34.4-9.3l6.3-9.3l59.7-0.1l-5.9,9.2h-16.5c3,3.2,5.2,6.8,5.3,10l17.1-0.2l-5.9,9.1l-11.4,0.2
		c-1.8,13.6-14.3,21.7-30.1,23.6l35.5,45.3L209.5,1186.5L209.5,1186.5L209.5,1186.5z"/>
</g>
</svg>
