<svg id="Layer_1" viewBox="0 0 512 512" xmlns="http://www.w3.org/2000/svg" data-name="Layer 1"><g fill-rule="evenodd"><path d="m500.845 220.862v-20.305c-.056-33.561-1.573-41.699-15.066-49.61-11.838-6.94-28.258-10.01-41.51-14.366l1.362-2.276-14.706-7.892h-56.158l-14.706 7.892 1.361 2.276c-13.251 4.356-29.672 7.426-41.509 14.366-13.493 7.911-15.011 16.049-15.065 49.61v20.305s195.999 0 195.999 0z" fill="#f2671f"/><path d="m421.04 136.581h-59.619c-13.251 4.356-29.672 7.426-41.509 14.366-13.493 7.911-15.011 16.049-15.065 49.61v20.305s172.77 0 172.77 0v-20.305c-.056-33.561-1.573-41.699-15.066-49.61-11.837-6.94-28.258-10.01-41.51-14.366z" fill="#ff8748"/><path d="m432.943 131.927c-6.776-3.667-11.21-8.547-11.21-16.033v-21.67h-37.775v21.67c0 7.486-4.434 12.366-11.21 16.033l30.098 17.553 30.098-17.553z" fill="#f29988"/><path d="m383.957 99.727v16.166c0 7.486-4.434 12.366-11.21 16.033l30.098 17.553 20.828-12.147c-6.675-3.655-11.031-8.515-11.031-15.935v-21.67z" fill="#fdb0a0"/><path d="m374.766 126.413 28.079 23.066-24.048 16.037-18.738-31.211z" fill="#cfe8ff"/><path d="m430.924 126.413-28.079 23.066 24.048 16.037 18.737-31.211z" fill="#cfe8ff"/><path d="m402.845 114.965c50.798-3.294 64.213-104.07 0-104.07s-50.798 100.776 0 104.07z" fill="#fdb0a0"/><path d="m402.845 114.965c3.444-.223 6.709-.908 9.797-1.966 24.072-23.704 28.949-78.938 3.201-100.513-3.921-1.026-8.241-1.591-12.998-1.591-64.213 0-50.798 100.776 0 104.07z" fill="#ffcec0"/></g><g fill-rule="evenodd"><path d="m207.155 220.862v-20.305c-.056-33.561-1.573-41.699-15.066-49.61-11.838-6.94-28.258-10.01-41.51-14.366l1.362-2.276-14.707-7.892h-56.158l-14.706 7.892 1.361 2.276c-13.251 4.356-29.672 7.426-41.509 14.366-13.493 7.911-15.011 16.049-15.065 49.61v20.305s195.999 0 195.999 0z" fill="#2a92fa"/><path d="m127.35 136.581h-59.619c-13.251 4.356-29.672 7.426-41.509 14.366-13.493 7.911-15.011 16.049-15.065 49.61v20.305s172.77 0 172.77 0v-20.305c-.056-33.561-1.573-41.699-15.066-49.61-11.838-6.94-28.258-10.01-41.51-14.366z" fill="#4eb1fc"/><path d="m139.253 131.927c-6.776-3.667-11.21-8.547-11.21-16.033v-21.67h-37.775v21.67c0 7.486-4.434 12.366-11.211 16.033l30.098 17.553z" fill="#f29988"/><path d="m90.267 99.727v16.166c0 7.486-4.434 12.366-11.21 16.033l30.098 17.553 20.828-12.147c-6.675-3.655-11.031-8.515-11.031-15.935v-21.67z" fill="#fdb0a0"/><path d="m81.076 126.413 28.079 23.066-24.048 16.037-18.737-31.211z" fill="#cfe8ff"/><path d="m137.234 126.413-28.079 23.066 24.048 16.037 18.738-31.211z" fill="#cfe8ff"/><path d="m109.155 114.965c50.798-3.294 64.213-104.07 0-104.07s-50.798 100.776 0 104.07z" fill="#fdb0a0"/><path d="m109.155 114.965c3.444-.223 6.709-.908 9.797-1.966 24.072-23.704 28.949-78.938 3.201-100.513-3.921-1.026-8.241-1.591-12.998-1.591-64.213 0-50.798 100.776 0 104.07z" fill="#ffcec0"/></g><circle cx="256" cy="182.763" fill="#99d100" r="66.937" transform="matrix(.29 -.957 .957 .29 6.894 374.817)"/><g fill-rule="evenodd"><path d="m249 249.337c-33.679-3.5-59.937-31.969-59.937-66.574s26.258-63.074 59.937-66.574c33.678 3.5 59.937 31.97 59.937 66.574s-26.259 63.074-59.937 66.574z" fill="#a8e304"/><path d="m291.173 156.28c3.365 3.366 3.366 8.873 0 12.239l-40.155 40.155c-2.395 2.395-5.473 3.44-8.832 2.998s-6.061-2.248-7.755-5.181l-14.977-25.94c-2.38-4.122-.955-9.442 3.168-11.822 4.122-2.38 9.442-.955 11.822 3.168l10.568 18.305 33.922-33.921c3.366-3.366 8.873-3.366 12.239 0z" fill="#009914"/><g><path d="m258.931 481.337 18.603 10.579c24.012 13.863 38.526-15.615 19.767-26.538l10.445 6.03c8.343 4.817 19.109 1.932 23.926-6.411 4.8-8.313 1.933-19.068-6.356-23.894l5.587 3.226c8.883 5.128 20.348 2.056 25.476-6.826 5.107-8.846 2.062-20.29-6.753-25.433l.018.01 5.551 3.205c8.883 5.129 20.348 2.056 25.476-6.826 2.55-4.417 3.052-9.539 1.834-14.144-1.451-3.758-2.726-7.062-8.66-11.332l-56.041-32.354c-29.655-23.795-45.701-37.478-67.854-59.978-38.49-27.664-66.192 6.749-117.113-21.889l-36.221-20.372c-32.322 26.335-50.662 59.296-39.296 113.044l64.685 33.345 16.676 17.945 120.25 68.612z" fill="#f29988"/><g fill="#ea806f"><path d="m377.51 412.512c1.21-1.171 2.279-2.526 3.16-4.052 2.55-4.417 3.052-9.54 1.834-14.144-1.451-3.758-2.726-7.062-8.66-11.332l-56.041-32.354c-29.655-23.795-45.701-37.479-67.854-59.978-4.806-3.454-9.444-5.941-13.98-7.703l-48.961 30.527c-17.538 10.934-17.106 33.462-1.884 46.067 8.861 7.338 19.153 11.588 30.765 11.136 23.196-.903 41.486-20.16 62.525-20.285 12.004-.071 22.396 6.512 32.424 12.301l55.396 31.983c4.74 3.029 14.17 8.41 11.276 17.834z"/><path d="m294.609 463.825c-3.445-1.988-7.884-.799-9.872 2.646-1.986 3.44-.794 7.887 2.645 9.872l17.012 9.822c3.113-6.847 1.518-15.771-7.094-20.786z"/><path d="m314.999 435.148c-3.845-2.22-8.801-.892-11.021 2.954-2.217 3.84-.887 8.805 2.953 11.021l25.382 14.654c3.868-8.117.891-18.08-6.998-22.673l-10.315-5.956z"/><path d="m349.626 412.071-15.927-9.196c-3.846-2.22-8.801-.892-11.021 2.954-2.217 3.84-.887 8.805 2.953 11.021l31.856 18.391c3.45-8.449.219-18.458-7.86-23.171z"/></g><g fill="#ffcec0"><path d="m135.554 418.14c-5.071 8.784-2.034 20.12 6.751 25.191 8.771 5.064 20.126 2.022 25.191-6.75l13.253-22.956c5.072-8.784 2.034-20.119-6.75-25.191-8.772-5.064-20.127-2.022-25.191 6.75l-13.253 22.955z"/><path d="m231.378 473.463c-5.071 8.784-2.033 20.12 6.75 25.191 8.771 5.064 20.126 2.022 25.191-6.75l13.253-22.956c5.072-8.784 2.034-20.119-6.75-25.191-8.772-5.064-20.127-2.022-25.191 6.75l-13.253 22.955z"/><path d="m194.962 462.772c-5.072 8.784-2.034 20.119 6.75 25.191 8.772 5.064 20.127 2.022 25.191-6.75l17.728-30.706c5.072-8.784 2.034-20.119-6.75-25.191-8.772-5.064-20.127-2.022-25.191 6.75l-17.728 30.705z"/><path d="m159.264 450.839c-5.072 8.784-2.034 20.12 6.75 25.191 8.772 5.064 20.127 2.022 25.191-6.75l21.485-37.214c5.071-8.784 2.034-20.119-6.75-25.191-8.772-5.064-20.127-2.022-25.191 6.75l-21.484 37.214z"/></g><path d="m453.571 361.435-71.067 32.881c-1.451-3.758-2.726-7.062-8.66-11.332l-56.04-32.354c-12.245-7.07-24.054-14.26-39.473-14.168-33.541.198-56.072 35.742-84.32 12.35-7.112-5.89-9.776-17.188.369-23.513l59.923-37.361c19.99-12.463 41.507-18.405 63.351-11.205 18.732 6.174 37.244 4.683 54.481-4.904l42.141-23.438c36.321 25.102 52.215 70.826 39.296 113.044z" fill="#ffcec0"/><path d="m465.374 366.904-17.805 7.561c-2.249.955-4.621.744-6.665-.594s-3.187-3.428-3.212-5.871c-.428-42.287-17.733-76.959-48.434-102.805-1.842-1.551-2.727-3.718-2.496-6.115s1.513-4.354 3.617-5.524l22.708-12.63c3.837-2.134 8.328-1.774 11.775.945 35.912 28.326 54.881 77.747 46.786 117.361-.723 3.541-2.947 6.259-6.274 7.672z" fill="#f2671f"/><path d="m465.374 366.904-12.266 5.209c-.072-.044-.143-.089-.214-.136-2.168-1.419-3.379-3.634-3.406-6.225-.454-44.834-18.802-81.595-51.352-108.999-1.835-1.545-2.774-3.665-2.678-6.023l17.629-9.805c3.837-2.134 8.328-1.774 11.775.945 35.912 28.326 54.881 77.747 46.786 117.361-.724 3.541-2.947 6.259-6.274 7.672z" fill="#ff8748"/><path d="m46.625 366.904 17.806 7.561c2.248.955 4.621.743 6.665-.594 2.044-1.338 3.187-3.428 3.212-5.871.428-42.287 17.734-76.959 48.434-102.805 1.842-1.551 2.727-3.718 2.496-6.115-.232-2.397-1.513-4.354-3.617-5.524l-22.708-12.63c-3.837-2.134-8.328-1.774-11.775.945-35.913 28.326-54.882 77.747-46.786 117.361.724 3.541 2.947 6.259 6.274 7.672z" fill="#2a92fa"/><path d="m46.625 366.904 12.266 5.209c.072-.044.143-.089.214-.136 2.168-1.419 3.379-3.634 3.406-6.225.454-44.834 18.802-81.595 51.352-108.999 1.835-1.545 2.774-3.665 2.678-6.023l-17.629-9.805c-3.837-2.134-8.328-1.774-11.775.945-35.912 28.326-54.881 77.747-46.786 117.361.724 3.541 2.947 6.259 6.274 7.672z" fill="#5caeff"/><g fill="#fdb0a0"><path d="m145.732 444.866c8.111 2.67 17.338-.62 21.763-8.284l13.254-22.957c4.432-7.676 2.671-17.301-3.706-22.991l-31.31 54.231z"/><path d="m241.555 500.189c8.11 2.67 17.338-.62 21.764-8.285l13.253-22.956c4.432-7.676 2.671-17.301-3.706-22.991l-31.31 54.231z"/><path d="m205.14 489.498c8.111 2.67 17.338-.62 21.763-8.285l17.728-30.706c4.432-7.676 2.67-17.3-3.706-22.991l-35.785 61.981z"/><path d="m169.441 477.564c8.096 2.665 17.304-.608 21.739-8.242l21.51-37.256c4.432-7.676 2.671-17.301-3.706-22.991l-39.542 68.49z"/></g></g></g></svg>