<svg height="512" viewBox="0 0 480 480" width="512" xmlns="http://www.w3.org/2000/svg" xmlns:xlink="http://www.w3.org/1999/xlink"><linearGradient id="linear-gradient" gradientUnits="userSpaceOnUse" x1="-5.657" x2="261.657" y1="309.657" y2="42.343"><stop offset="0" stop-color="#d1cdc7"/><stop offset=".539" stop-color="#d7d4cf"/><stop offset="1" stop-color="#e0deda"/></linearGradient><g id="_07-healthy" data-name="07-healthy"><g id="flat"><path d="m279.971 127.422a8.015 8.015 0 0 0 -1.571-4.222l-48-64a8 8 0 0 0 -12.8 0l-48 64a8.129 8.129 0 0 0 -1.6 4.8v208a8 8 0 0 0 8 8h96a8 8 0 0 0 8-8v-208c0-.195-.015-.386-.029-.578z" fill="#e8e6e3"/><path d="m231.013 67.849a8.2 8.2 0 0 0 .987-3.849v-48a8 8 0 0 0 -8-8h-144a8 8 0 0 0 -8 8v48l-46.4 59.2a8.129 8.129 0 0 0 -1.6 4.8v208a8 8 0 0 0 8 8h144a8 8 0 0 0 8-8v-208l46.4-59.2c.211-.312.431-.618.613-.951z" fill="url(#linear-gradient)"/><path d="m64 336v-208a8.129 8.129 0 0 1 1.6-4.8l46.4-59.2v-48a8 8 0 0 1 8-8h-40a8 8 0 0 0 -8 8v48l-46.4 59.2a8.129 8.129 0 0 0 -1.6 4.8v208a8 8 0 0 0 8 8h40a8 8 0 0 1 -8-8z" fill="#d1cdc7"/><path d="m231.013 67.849a8.2 8.2 0 0 0 .987-3.849h-160l-46.4 59.2a8.129 8.129 0 0 0 -1.6 4.8h160l46.4-59.2c.211-.312.431-.618.613-.951z" fill="#f0eeec"/><path d="m112 64h-40l-46.4 59.2a8.129 8.129 0 0 0 -1.6 4.8h40a8.129 8.129 0 0 1 1.6-4.8z" fill="#e8e6e3"/><path d="m224 8h-144a8 8 0 0 0 -8 8v48h160v-48a8 8 0 0 0 -8-8z" fill="#4890df"/><path d="m120 8h-40a8 8 0 0 0 -8 8v48h40v-48a8 8 0 0 1 8-8z" fill="#3182db"/><path d="m24 192v144a8 8 0 0 0 8 8h144a8 8 0 0 0 8-8v-176h-160z" fill="#a3c7ef"/><path d="m64 336v-176h-40v176a8 8 0 0 0 8 8h40a8 8 0 0 1 -8-8z" fill="#76ace7"/><path d="m420.216 181.472c-17.447-8.385-45.972-12.023-84.216 16.428-38.244-28.447-66.768-24.809-84.216-16.423-35.772 17.188-51.784 65.886-51.784 106.523 0 43.5 23.129 87.022 57.555 108.3 24.9 15.391 52.611 17.422 78.445 5.857a82.234 82.234 0 0 0 33.745 7.4c15.234 0 30.429-4.433 44.7-13.253 34.426-21.282 57.555-64.804 57.555-108.304 0-40.637-16.012-89.335-51.784-106.528z" fill="#ee7c80"/><path d="m409.745 394.116a82.234 82.234 0 0 1 -33.745-7.396c-25.834 11.565-53.544 9.534-78.445-5.857-34.426-21.276-57.555-64.798-57.555-108.298 0-34.715 11.7-75.3 37.4-97.11a61.087 61.087 0 0 0 -25.62 6.017c-35.768 17.193-51.78 65.891-51.78 106.528 0 43.5 23.129 87.022 57.555 108.3 24.9 15.391 52.611 17.422 78.445 5.857a82.234 82.234 0 0 0 33.745 7.4c15.234 0 30.429-4.433 44.7-13.253 1.381-.853 2.736-1.755 4.079-2.678a78.639 78.639 0 0 1 -8.779.49z" fill="#ea5b60"/><path d="m343.428 242.971-14.856-5.942c15.265-38.164 7.155-60.418-.689-81.939-7.954-21.823-16.178-44.388.962-78.668l14.31 7.156c-14.058 28.117-7.96 44.849-.239 66.033 8.459 23.211 18.048 49.52.512 93.36z" fill="#665946"/><path d="m336 248a40.146 40.146 0 0 1 -34.644-19.994l13.85-8.012a24.01 24.01 0 0 0 41.588 0l13.85 8.012a40.146 40.146 0 0 1 -34.644 19.994z" fill="#ea5b60"/><path d="m414.341 123.993a39.992 39.992 0 0 0 -69.265 0 8 8 0 0 0 0 8.014 39.992 39.992 0 0 0 69.265 0 8 8 0 0 0 0-8.014z" fill="#c1d776"/><path d="m152.488 342.229a321.769 321.769 0 0 0 -8.3-45.244c-8.675-32.832-21-51.777-36.633-56.307-17.54-5.084-34.032-.43-42.012 11.858-3.9 6.008-9.961 20.888 3.184 44.462a108.809 108.809 0 0 0 -18.8-1.9h-.3c-27.1 0-36.811 13.815-40.176 25.428-3.379 11.658-2.547 28.6 20.608 43.134a108.6 108.6 0 0 0 16.9 8.444c-23.713 12.892-26.552 28.7-26.467 35.869.175 14.651 11.621 27.4 29.16 32.486a28.668 28.668 0 0 0 8.017 1.1c14.415 0 32.211-9.751 53.049-29.1a321.652 321.652 0 0 0 31.209-33.793 7.994 7.994 0 0 0 1.376-2.694l8.908-30.736a7.985 7.985 0 0 0 .277-3.007z" fill="#acc949"/><path d="m150.314 326.226-7.014 24.191a7.985 7.985 0 0 1 -1.376 2.694 321.54 321.54 0 0 1 -31.207 33.789c-20.838 19.349-38.634 29.1-53.049 29.1a28.668 28.668 0 0 1 -8.017-1.105c-12.352-3.58-21.675-10.966-26.174-20.137a30.585 30.585 0 0 0 -2.986 13.212c.175 14.651 11.621 27.4 29.16 32.486a28.668 28.668 0 0 0 8.017 1.1c14.415 0 32.211-9.751 53.049-29.1a321.652 321.652 0 0 0 31.209-33.793 7.994 7.994 0 0 0 1.376-2.694l8.908-30.736a7.985 7.985 0 0 0 .278-3.013c-.047-.47-.681-6.762-2.174-15.994z" fill="#86b817"/><path d="m431.666 410.773c-14.058-11.531-34.909-25.114-60.3-39.281-45.468-25.367-102-50.6-134.411-59.993-33.725-9.775-54.9-10.976-70.8-4.014-15.779 6.908-25.876 21.463-33.762 48.671s-7.138 44.907 2.5 59.181c9.714 14.386 28.249 24.695 61.975 34.47 32.415 9.395 93.674 18.3 145.66 21.181 12.107.67 23.488 1 33.956 1a318.51 318.51 0 0 0 38-1.951c24.567-3.032 37.474-9.5 40.619-20.351s-4.303-23.214-23.437-38.913z" fill="#f9cc5c"/><g fill="#f5a83d"><path d="m422.684 446.049a318.522 318.522 0 0 1 -38.005 1.951c-10.469 0-21.85-.333-33.956-1-51.986-2.878-113.245-11.786-145.66-21.181-33.726-9.775-52.261-20.084-61.976-34.469-9.064-13.423-10.263-29.878-3.818-54.415a147.668 147.668 0 0 0 -6.88 19.225c-7.886 27.207-7.138 44.907 2.5 59.181 9.714 14.386 28.249 24.695 61.975 34.47 32.415 9.395 93.674 18.3 145.66 21.181 12.107.67 23.488 1 33.956 1a318.51 318.51 0 0 0 38-1.951c24.567-3.032 37.474-9.5 40.619-20.351a19.22 19.22 0 0 0 -.884-12.69c-6.771 4.32-17.15 7.274-31.531 9.049z"/><path d="m235.39 403.076 28.328-82.387c-5.289-2.025-10.324-3.855-15.041-5.463l-28.418 82.648z"/><path d="m297.021 420.374-14.034 45.226c5.358.657 10.763 1.273 16.18 1.846l13.133-42.33z"/><path d="m393.571 432.091 12.715-39.627q-6.6-4.311-13.982-8.8l-13.968 43.536z"/></g></g></g></svg>