<?xml version="1.0" encoding="UTF-8"?>
<svg xmlns="http://www.w3.org/2000/svg" xmlns:xlink="http://www.w3.org/1999/xlink" version="1.1" id="Layer_1" x="0px" y="0px" viewBox="0 0 256 256" xml:space="preserve" width="512" height="512">
<g>
	<g>
		<g>
			<g>
				<g>
					<g>
						<path fill="#91B56B" d="M98.008,55.296H85.132c-11.931,0-21.603,9.672-21.603,21.603V90.49c0,1.264,1.025,2.289,2.289,2.289        h51.504c1.264,0,2.289-1.025,2.289-2.289V76.899C119.611,64.968,109.939,55.296,98.008,55.296z"/>
					</g>
					<g>
						<path fill="#76A34F" d="M107.446,57.461c1.387,2.851,2.166,6.053,2.166,9.438V80.49c0,1.264-1.025,2.289-2.289,2.289H63.529        v7.711c0,1.264,1.025,2.289,2.289,2.289h51.504c1.264,0,2.289-1.025,2.289-2.289V76.899        C119.611,68.352,114.648,60.965,107.446,57.461z"/>
					</g>
					<g>
						
							<ellipse transform="matrix(0.2298 -0.9732 0.9732 0.2298 26.1834 124.2189)" fill="#FCC4AE" cx="91.57" cy="45.567" rx="18.026" ry="18.026"/>
					</g>
					<g>
						<path fill="#F2AD97" d="M98.299,28.839c0.837,2.079,1.298,4.35,1.298,6.728c0,9.956-8.071,18.026-18.026,18.026        c-2.379,0-4.649-0.461-6.728-1.298c2.666,6.623,9.151,11.298,16.728,11.298c9.956,0,18.026-8.071,18.026-18.026        C109.597,37.99,104.922,31.505,98.299,28.839z"/>
					</g>
				</g>
				<g>
					<g>
						<path fill="#E8566F" d="M170.868,55.296h-12.876c-11.931,0-21.603,9.672-21.603,21.603V90.49c0,1.264,1.025,2.289,2.289,2.289        h51.504c1.264,0,2.289-1.025,2.289-2.289V76.899C192.471,64.968,182.799,55.296,170.868,55.296z"/>
					</g>
					<g>
						<path fill="#E63950" d="M180.305,57.461c1.387,2.851,2.166,6.053,2.166,9.438V80.49c0,1.264-1.025,2.289-2.289,2.289h-43.793        v7.711c0,1.264,1.025,2.289,2.289,2.289h51.504c1.264,0,2.289-1.025,2.289-2.289V76.899        C192.471,68.352,187.507,60.965,180.305,57.461z"/>
					</g>
					<g>
						
							<ellipse transform="matrix(0.2298 -0.9732 0.9732 0.2298 82.3032 195.1292)" fill="#FCC4AE" cx="164.43" cy="45.567" rx="18.026" ry="18.026"/>
					</g>
					<g>
						<path fill="#F2AD97" d="M171.158,28.839c0.837,2.079,1.298,4.35,1.298,6.728c0,9.956-8.071,18.026-18.026,18.026        c-2.379,0-4.649-0.461-6.728-1.298c2.666,6.623,9.151,11.298,16.728,11.298c9.956,0,18.026-8.071,18.026-18.026        C182.456,37.99,177.781,31.505,171.158,28.839z"/>
					</g>
				</g>
			</g>
			<g>
				<g>
					<path fill="#5E9CF7" d="M134.438,74.038h-12.876c-11.931,0-21.603,9.672-21.603,21.603v13.591c0,1.264,1.025,2.289,2.289,2.289       h51.504c1.264,0,2.289-1.025,2.289-2.289V95.641C156.041,83.71,146.369,74.038,134.438,74.038z"/>
				</g>
				<g>
					<path fill="#478CF7" d="M143.875,76.203c1.387,2.852,2.166,6.054,2.166,9.438v13.591c0,1.264-1.025,2.289-2.289,2.289H99.959       v7.711c0,1.264,1.025,2.289,2.289,2.289h51.504c1.264,0,2.289-1.025,2.289-2.289V95.641       C156.041,87.094,151.077,79.706,143.875,76.203z"/>
				</g>
				<g>
					
						<ellipse transform="matrix(0.2298 -0.9732 0.9732 0.2298 36.0031 174.1097)" fill="#FCC4AE" cx="128" cy="64.309" rx="18.026" ry="18.026"/>
				</g>
				<g>
					<path fill="#F2AD97" d="M134.728,47.581c0.837,2.079,1.298,4.35,1.298,6.728c0,9.956-8.071,18.027-18.026,18.027       c-2.379,0-4.649-0.461-6.728-1.298c2.666,6.623,9.151,11.298,16.728,11.298c9.956,0,18.026-8.071,18.026-18.027       C146.026,56.732,141.351,50.247,134.728,47.581z"/>
				</g>
			</g>
		</g>
		<g>
			<g>
				<g>
					<g>
						<path fill="#E8566F" d="M98.008,106.972H85.132c-11.931,0-21.603,9.672-21.603,21.603v13.591c0,1.264,1.025,2.289,2.289,2.289        h51.504c1.264,0,2.289-1.025,2.289-2.289v-13.591C119.611,116.644,109.939,106.972,98.008,106.972z"/>
					</g>
					<g>
						<path fill="#E63950" d="M107.446,109.137c1.387,2.852,2.166,6.054,2.166,9.438v13.591c0,1.264-1.025,2.289-2.289,2.289H63.529        v7.711c0,1.264,1.025,2.289,2.289,2.289h51.504c1.264,0,2.289-1.025,2.289-2.289v-13.591        C119.611,120.028,114.648,112.641,107.446,109.137z"/>
					</g>
					<g>
						
							<ellipse transform="matrix(0.2298 -0.9732 0.9732 0.2298 -24.1101 164.0222)" fill="#FCC4AE" cx="91.57" cy="97.243" rx="18.026" ry="18.026"/>
					</g>
					<g>
						<path fill="#F2AD97" d="M98.299,80.515c0.837,2.079,1.298,4.35,1.298,6.728c0,9.956-8.071,18.026-18.026,18.026        c-2.379,0-4.649-0.461-6.728-1.298c2.666,6.623,9.151,11.298,16.728,11.298c9.956,0,18.026-8.071,18.026-18.026        C109.597,89.666,104.922,83.181,98.299,80.515z"/>
					</g>
				</g>
				<g>
					<g>
						<path fill="#91B56B" d="M170.868,106.972h-12.876c-11.931,0-21.603,9.672-21.603,21.603v13.591        c0,1.264,1.025,2.289,2.289,2.289h51.504c1.264,0,2.289-1.025,2.289-2.289v-13.591        C192.471,116.644,182.799,106.972,170.868,106.972z"/>
					</g>
					<g>
						<path fill="#76A34F" d="M180.305,109.137c1.387,2.852,2.166,6.054,2.166,9.438v13.591c0,1.264-1.025,2.289-2.289,2.289        h-43.793v7.711c0,1.264,1.025,2.289,2.289,2.289h51.504c1.264,0,2.289-1.025,2.289-2.289v-13.591        C192.471,120.028,187.507,112.641,180.305,109.137z"/>
					</g>
					<g>
						
							<ellipse transform="matrix(0.2298 -0.9732 0.9732 0.2298 32.0096 234.9325)" fill="#FCC4AE" cx="164.43" cy="97.243" rx="18.026" ry="18.026"/>
					</g>
					<g>
						<path fill="#F2AD97" d="M171.158,80.515c0.837,2.079,1.298,4.35,1.298,6.728c0,9.956-8.071,18.026-18.026,18.026        c-2.379,0-4.649-0.461-6.728-1.298c2.666,6.623,9.151,11.298,16.728,11.298c9.956,0,18.026-8.071,18.026-18.026        C182.456,89.666,177.781,83.181,171.158,80.515z"/>
					</g>
				</g>
			</g>
			<g>
				<g>
					<path fill="#5E9CF7" d="M134.438,125.713h-12.876c-11.931,0-21.603,9.672-21.603,21.603v13.591       c0,1.264,1.025,2.289,2.289,2.289h51.504c1.264,0,2.289-1.025,2.289-2.289v-13.591       C156.041,135.385,146.369,125.713,134.438,125.713z"/>
				</g>
				<g>
					<path fill="#478CF7" d="M143.875,127.879c1.387,2.851,2.166,6.053,2.166,9.438v13.591c0,1.264-1.025,2.289-2.289,2.289H99.959       v7.711c0,1.264,1.025,2.289,2.289,2.289h51.504c1.264,0,2.289-1.025,2.289-2.289v-13.591       C156.041,138.77,151.077,131.382,143.875,127.879z"/>
				</g>
				<g>
					
						<ellipse transform="matrix(0.2298 -0.9732 0.9732 0.2298 -14.2905 213.913)" fill="#FCC4AE" cx="128" cy="115.985" rx="18.026" ry="18.026"/>
				</g>
				<g>
					<path fill="#F2AD97" d="M134.728,99.257c0.837,2.079,1.298,4.35,1.298,6.728c0,9.956-8.071,18.026-18.026,18.026       c-2.379,0-4.649-0.461-6.728-1.298c2.666,6.623,9.151,11.298,16.728,11.298c9.956,0,18.026-8.071,18.026-18.026       C146.026,108.408,141.351,101.923,134.728,99.257z"/>
				</g>
			</g>
		</g>
	</g>
	<g>
		<g>
			<g>
				<g>
					<g>
						<path fill="#58595B" d="M209.923,230.536v-15.831c0-2.149-1.742-3.891-3.891-3.891h-46.994c-2.149,0-3.891,1.742-3.891,3.891        v15.831c0,2.149,1.742,3.891,3.891,3.891h46.994C208.181,234.427,209.923,232.685,209.923,230.536z"/>
					</g>
				</g>
			</g>
			<g>
				<path fill="#414042" d="M206.032,210.814h-1.109v14.722c0,2.149-1.742,3.891-3.891,3.891h-45.885v1.109      c0,2.149,1.742,3.891,3.891,3.891h46.994c2.149,0,3.891-1.742,3.891-3.891v-15.831      C209.923,212.556,208.181,210.814,206.032,210.814z"/>
			</g>
			<g>
				<path fill="#FCC4AE" d="M165.412,210.814v-24.786c0-2.652,1.054-5.196,2.929-7.071l40.619-40.619      c1.875-1.875,2.929-4.419,2.929-7.071V97.913c0-3.752,3.041-6.793,6.793-6.793h0c3.752,0,6.793,3.041,6.793,6.793v66.998      c0,2.652-1.054,5.196-2.929,7.071l-19.733,19.733c-1.875,1.875-2.929,4.419-2.929,7.071v12.029H165.412z"/>
			</g>
			<g>
				<path fill="#F2AD97" d="M218.682,91.12L218.682,91.12c-1.16,0-2.252,0.292-3.207,0.805v62.985c0,2.652-1.053,5.196-2.929,7.071      l-19.733,19.733c-1.875,1.875-2.929,4.419-2.929,7.071v12.029h-24.472v10h34.472v-12.029c0-2.652,1.054-5.196,2.929-7.071      l19.733-19.733c1.875-1.875,2.929-4.419,2.929-7.071V97.913C225.475,94.162,222.433,91.12,218.682,91.12z"/>
			</g>
			<g>
				<path fill="#E59076" d="M220.278,91.317c0.124,0.513,0.196,1.045,0.196,1.596v66.998c0,2.652-1.053,5.196-2.929,7.071      l-19.733,19.733c-1.875,1.875-2.929,4.419-2.929,7.071v12.029h-29.472v5h34.472v-12.029c0-2.652,1.054-5.196,2.929-7.071      l19.733-19.733c1.875-1.875,2.929-4.419,2.929-7.071V97.913C225.475,94.712,223.258,92.036,220.278,91.317z"/>
			</g>
			<g>
				<path fill="#FCC4AE" d="M177.853,169.461l23.585-23.585c2.653-2.653,6.954-2.653,9.606,0l0,0c2.653,2.653,2.653,6.954,0,9.606      l-23.585,23.585L177.853,169.461z"/>
			</g>
			<g>
				<path fill="#F2AD97" d="M211.044,145.876L211.044,145.876c-1.975-1.975-4.862-2.477-7.303-1.512      c0.839,0.331,1.625,0.834,2.303,1.512v0c2.653,2.653,2.653,6.954,0,9.606l-18.584,18.585c-1.381,1.381-1.381,3.619,0,5l0,0      l23.584-23.585C213.697,152.83,213.697,148.529,211.044,145.876z"/>
			</g>
		</g>
		<g>
			<g>
				<g>
					<g>
						<path fill="#58595B" d="M46.077,230.536v-15.831c0-2.149,1.742-3.891,3.891-3.891h46.994c2.149,0,3.891,1.742,3.891,3.891        v15.831c0,2.149-1.742,3.891-3.891,3.891H49.968C47.819,234.427,46.077,232.685,46.077,230.536z"/>
					</g>
				</g>
			</g>
			<g>
				<path fill="#414042" d="M49.968,210.814h1.109v14.722c0,2.149,1.742,3.891,3.891,3.891h45.885v1.109      c0,2.149-1.742,3.891-3.891,3.891H49.968c-2.149,0-3.891-1.742-3.891-3.891v-15.831      C46.077,212.556,47.819,210.814,49.968,210.814z"/>
			</g>
			<g>
				<path fill="#FCC4AE" d="M90.588,210.814v-24.786c0-2.652-1.054-5.196-2.929-7.071L47.04,138.338      c-1.875-1.875-2.929-4.419-2.929-7.071V97.913c0-3.752-3.041-6.793-6.793-6.793h0c-3.752,0-6.793,3.041-6.793,6.793v66.998      c0,2.652,1.054,5.196,2.929,7.071l19.733,19.733c1.875,1.875,2.929,4.419,2.929,7.071v12.029H90.588z"/>
			</g>
			<g>
				<path fill="#F2AD97" d="M35.722,91.317c-0.124,0.513-0.196,1.045-0.196,1.596v66.998c0,2.652,1.053,5.196,2.929,7.071      l19.733,19.733c1.875,1.875,2.929,4.419,2.929,7.071v12.029h29.472v5H56.116v-12.029c0-2.652-1.054-5.196-2.929-7.071      l-19.733-19.733c-1.875-1.875-2.929-4.419-2.929-7.071V97.913C30.525,94.712,32.742,92.036,35.722,91.317z"/>
			</g>
			<g>
				<path fill="#FCC4AE" d="M78.147,169.461l-23.585-23.585c-2.653-2.653-6.954-2.653-9.606,0h0c-2.653,2.653-2.653,6.954,0,9.606      l23.585,23.585L78.147,169.461z"/>
			</g>
			<g>
				<path fill="#FFD2C0" d="M84.59,200.47c-1.11,0-2-0.9-2-2v-12.44c-0.01-0.55-0.2-1.03-0.59-1.42l-2.33-2.33l-0.01-0.01      c-0.37-0.38-0.57-0.87-0.58-1.4c0-0.53,0.21-1.04,0.59-1.41c0.76-0.76,2.07-0.76,2.83-0.01l2.33,2.34      c1.12,1.11,1.76,2.66,1.76,4.24v12.44C86.59,199.57,85.689,200.47,84.59,200.47z M75.43,177.21c-0.54,0-1.04-0.21-1.42-0.58      c-0.37-0.38-0.58-0.88-0.58-1.42c0-0.53,0.21-1.04,0.58-1.41c0.76-0.76,2.08-0.76,2.83,0c0.38,0.37,0.59,0.88,0.59,1.41      c0,0.54-0.21,1.04-0.59,1.42C76.46,177,75.96,177.21,75.43,177.21z"/>
			</g>
			<g>
				<path fill="#F2AD97" d="M44.956,145.876L44.956,145.876c1.975-1.975,4.862-2.477,7.303-1.512      c-0.839,0.331-1.625,0.834-2.303,1.512v0c-2.653,2.653-2.653,6.954,0,9.606l18.584,18.585c1.381,1.381,1.381,3.619,0,5l0,0      l-23.584-23.585C42.303,152.83,42.303,148.529,44.956,145.876z"/>
			</g>
		</g>
	</g>
</g>
</svg>
