<svg height="512" viewBox="0 0 64 64" width="512" xmlns="http://www.w3.org/2000/svg" xmlns:xlink="http://www.w3.org/1999/xlink"><linearGradient id="linear-gradient" gradientUnits="userSpaceOnUse" x1="16" x2="48" y1="29" y2="29"><stop offset="0" stop-color="#474f72"/><stop offset="1" stop-color="#878c9f"/></linearGradient><linearGradient id="linear-gradient-2" x1="16" x2="48" xlink:href="#linear-gradient" y1="20" y2="20"/><linearGradient id="linear-gradient-3" gradientUnits="userSpaceOnUse" x1="13" x2="51" y1="48.5" y2="48.5"><stop offset="0" stop-color="#e9a254"/><stop offset="1" stop-color="#f4bb79"/></linearGradient><linearGradient id="linear-gradient-4" gradientUnits="userSpaceOnUse" x1="6" x2="58" y1="50" y2="50"><stop offset="0" stop-color="#d4d8e1"/><stop offset="1" stop-color="#f3f4f5"/></linearGradient><linearGradient id="linear-gradient-5" gradientUnits="userSpaceOnUse" x1="20" x2="44" y1="25" y2="25"><stop offset="0" stop-color="#f2c4b0"/><stop offset="1" stop-color="#ffe3d7"/></linearGradient><linearGradient id="linear-gradient-6" x1="14" x2="20" xlink:href="#linear-gradient-5" y1="22" y2="22"/><linearGradient id="linear-gradient-7" x1="44" x2="50" xlink:href="#linear-gradient-5" y1="22" y2="22"/><linearGradient id="linear-gradient-8" x1="16" x2="48" xlink:href="#linear-gradient" y1="9" y2="9"/><linearGradient id="linear-gradient-9" gradientUnits="userSpaceOnUse" x1="27" x2="37" y1="54.5" y2="54.5"><stop offset="0" stop-color="#da5466"/><stop offset="1" stop-color="#f4929c"/></linearGradient><linearGradient id="linear-gradient-10" gradientUnits="userSpaceOnUse" x1="15" x2="49" y1="51.91" y2="51.91"><stop offset="0" stop-color="#d96bb0"/><stop offset="1" stop-color="#e49fc6"/></linearGradient><g id="Female_Student" data-name="Female Student"><path d="m16 25h32a0 0 0 0 1 0 0v6a2 2 0 0 1 -2 2h-28a2 2 0 0 1 -2-2v-6a0 0 0 0 1 0 0z" fill="url(#linear-gradient)"/><path d="m16 18h32v4h-32z" fill="url(#linear-gradient-2)"/><path d="m19 33h26a6 6 0 0 1 6 6v25a0 0 0 0 1 0 0h-38a0 0 0 0 1 0 0v-25a6 6 0 0 1 6-6z" fill="url(#linear-gradient-3)"/><path d="m58 52.31v11.69h-52v-11.69a10 10 0 0 1 5.7-9l15.3-7.31h10l15.3 7.29a10 10 0 0 1 5.7 9.02z" fill="url(#linear-gradient-4)"/><path d="m32 45a5 5 0 0 1 -5-5v-8h10v8a5 5 0 0 1 -5 5z" fill="#eab39b"/><path d="m32 37a12 12 0 0 1 -12-12v-12h24v12a12 12 0 0 1 -12 12z" fill="url(#linear-gradient-5)"/><path d="m18 26h2v-8h-2a4 4 0 0 0 0 8z" fill="url(#linear-gradient-6)"/><path d="m44 26h2a4 4 0 0 0 0-8h-2z" fill="url(#linear-gradient-7)"/><path d="m35 14a13.65 13.65 0 0 0 9.66 4h3.34v-2a16 16 0 0 0 -32 0v2h9.34a13.65 13.65 0 0 0 9.66-4z" fill="url(#linear-gradient-8)"/><path d="m32 45-8 4 .92-12.01 2.08-.99z" fill="#fff"/><path d="m40 49-8-4 5-9 2.08.99z" fill="#fff"/><path d="m36 47-4-2-4 2 2 5-3 12h10l-3-12z" fill="url(#linear-gradient-9)"/><path d="m49 41.71v22.29h-34v-22.29l4-1.9v3.19a13 13 0 0 0 26 0v-3.19z" fill="url(#linear-gradient-10)"/><g fill="#fbcc88"><path d="m46 37h3a2 2 0 0 1 2 2v25a0 0 0 0 1 0 0h-7a0 0 0 0 1 0 0v-25a2 2 0 0 1 2-2z"/><path d="m15 37h3a2 2 0 0 1 2 2v25a0 0 0 0 1 0 0h-7a0 0 0 0 1 0 0v-25a2 2 0 0 1 2-2z"/></g></g></svg>