<svg width="299" height="35" viewBox="0 0 299 35" fill="none" xmlns="http://www.w3.org/2000/svg">
<g clip-path="url(#clip0_134_26)">
<path d="M23.2683 1.69873C23.5133 2.08573 23.7333 2.60373 23.9273 3.25373C24.1193 3.90373 24.2173 4.57973 24.2173 5.28173C24.2173 6.65273 23.9273 7.62673 23.3473 8.20673C22.7683 8.78673 21.9853 9.07673 21.0023 9.07673H9.93534V15.0317H21.4763C21.7573 15.4187 21.9943 15.9277 22.1883 16.5597C22.3803 17.1917 22.4783 17.8597 22.4783 18.5617C22.4783 19.8977 22.1883 20.8547 21.6083 21.4337C21.0283 22.0137 20.2463 22.3037 19.2633 22.3037H10.0413V33.4237C9.65434 33.5287 9.04834 33.6337 8.22334 33.7397C7.39734 33.8447 6.58034 33.8977 5.77234 33.8977C4.96434 33.8977 4.25234 33.8357 3.63834 33.7127C3.02334 33.5907 2.50534 33.3707 2.08334 33.0547C1.66234 32.7377 1.34634 32.2987 1.13534 31.7367C0.924336 31.1747 0.819336 30.4377 0.819336 29.5237V6.59973C0.819336 5.08973 1.25734 3.89473 2.13634 3.01673C3.01434 2.13873 4.20934 1.69873 5.71934 1.69873H23.2683Z" fill="#21C1E0"/>
<path d="M36.443 17.6128C36.443 20.8098 37.093 23.1988 38.393 24.7798C39.692 26.3608 41.431 27.1508 43.61 27.1508C45.823 27.1508 47.58 26.3608 48.88 24.7798C50.179 23.1988 50.83 20.8098 50.83 17.6128C50.83 14.4508 50.188 12.0798 48.906 10.4988C47.623 8.91778 45.876 8.12678 43.663 8.12678C41.484 8.12678 39.737 8.90978 38.419 10.4728C37.102 12.0358 36.443 14.4168 36.443 17.6128ZM26.958 17.6128C26.958 14.8728 27.387 12.4488 28.249 10.3408C29.109 8.23278 30.286 6.46678 31.779 5.04478C33.272 3.62178 35.029 2.54078 37.049 1.80378C39.069 1.06578 41.256 0.696777 43.61 0.696777C45.963 0.696777 48.15 1.06578 50.171 1.80378C52.191 2.54078 53.956 3.62178 55.467 5.04478C56.977 6.46678 58.163 8.23278 59.024 10.3408C59.885 12.4488 60.315 14.8728 60.315 17.6128C60.315 20.3528 59.894 22.7868 59.051 24.9118C58.207 27.0378 57.039 28.8118 55.546 30.2338C54.052 31.6568 52.287 32.7368 50.25 33.4748C48.212 34.2128 45.999 34.5818 43.61 34.5818C41.221 34.5818 39.007 34.2038 36.97 33.4488C34.932 32.6938 33.176 31.5958 31.7 30.1548C30.225 28.7148 29.065 26.9408 28.222 24.8328C27.379 22.7248 26.958 20.3188 26.958 17.6128Z" fill="#21C1E0"/>
<path d="M73.4889 17.6128C73.4889 20.8098 74.1389 23.1988 75.4389 24.7798C76.7379 26.3608 78.4769 27.1508 80.6559 27.1508C82.8689 27.1508 84.6259 26.3608 85.9259 24.7798C87.2249 23.1988 87.8759 20.8098 87.8759 17.6128C87.8759 14.4508 87.2339 12.0798 85.9519 10.4988C84.6689 8.91778 82.9219 8.12678 80.7089 8.12678C78.5299 8.12678 76.7829 8.90978 75.4649 10.4728C74.1479 12.0358 73.4889 14.4168 73.4889 17.6128ZM64.0039 17.6128C64.0039 14.8728 64.4329 12.4488 65.2949 10.3408C66.1549 8.23278 67.3319 6.46678 68.8249 5.04478C70.3179 3.62178 72.0749 2.54078 74.0949 1.80378C76.1149 1.06578 78.3019 0.696777 80.6559 0.696777C83.0089 0.696777 85.1959 1.06578 87.2169 1.80378C89.2369 2.54078 91.0019 3.62178 92.5129 5.04478C94.0229 6.46678 95.2089 8.23278 96.0699 10.3408C96.9309 12.4488 97.3609 14.8728 97.3609 17.6128C97.3609 20.3528 96.9399 22.7868 96.0969 24.9118C95.2529 27.0378 94.0849 28.8118 92.5919 30.2338C91.0979 31.6568 89.3329 32.7368 87.2959 33.4748C85.2579 34.2128 83.0449 34.5818 80.6559 34.5818C78.2669 34.5818 76.0529 34.2038 74.0159 33.4488C71.9779 32.6938 70.2219 31.5958 68.7459 30.1548C67.2709 28.7148 66.1109 26.9408 65.2679 24.8328C64.4249 22.7248 64.0039 20.3188 64.0039 17.6128Z" fill="#21C1E0"/>
<path d="M100.207 9.07702C99.9611 8.69102 99.7331 8.16402 99.5221 7.49602C99.3111 6.82902 99.2061 6.12602 99.2061 5.38802C99.2061 4.01802 99.5131 3.03502 100.128 2.43702C100.742 1.84002 101.542 1.54102 102.526 1.54102H125.502C125.748 1.92802 125.977 2.45502 126.187 3.12202C126.398 3.79002 126.504 4.49202 126.504 5.23002C126.504 6.60002 126.195 7.58402 125.581 8.18102C124.966 8.77902 124.167 9.07702 123.183 9.07702H117.334V33.424C116.947 33.529 116.341 33.634 115.516 33.74C114.69 33.845 113.873 33.898 113.065 33.898C112.257 33.898 111.545 33.836 110.931 33.713C110.316 33.591 109.798 33.371 109.376 33.055C108.955 32.738 108.639 32.3 108.428 31.737C108.217 31.176 108.112 30.438 108.112 29.524V9.07702H100.207Z" fill="#21C1E0"/>
<path d="M142.945 16.5067C144.421 16.5067 145.554 16.1647 146.344 15.4797C147.135 14.7937 147.53 13.7487 147.53 12.3437C147.53 11.0087 147.117 9.98073 146.291 9.26073C145.466 8.54073 144.263 8.18073 142.682 8.18073C142.119 8.18073 141.654 8.18973 141.285 8.20673C140.916 8.22473 140.538 8.26873 140.152 8.33873V16.5067H142.945ZM140.205 33.4227C139.818 33.5287 139.212 33.6337 138.387 33.7387C137.561 33.8447 136.744 33.8977 135.936 33.8977C135.128 33.8977 134.416 33.8357 133.802 33.7127C133.187 33.5897 132.669 33.3697 132.247 33.0537C131.826 32.7377 131.51 32.2987 131.299 31.7367C131.088 31.1747 130.983 30.4377 130.983 29.5237V4.70273C130.983 3.96473 131.184 3.39373 131.588 2.98973C131.992 2.58573 132.546 2.26073 133.249 2.01473C134.442 1.59373 135.805 1.28573 137.333 1.09273C138.861 0.899734 140.397 0.802734 141.944 0.802734C146.792 0.802734 150.498 1.83973 153.063 3.91173C155.627 5.98573 156.91 8.79573 156.91 12.3437C156.91 14.0657 156.638 15.6197 156.093 17.0077C155.548 18.3957 154.741 19.5897 153.669 20.5907C152.597 21.5927 151.245 22.3657 149.611 22.9097C147.978 23.4547 146.089 23.7267 143.946 23.7267H140.205V33.4227Z" fill="#21C1E0"/>
<path d="M174.091 16.2957C175.426 16.2957 176.48 15.9537 177.253 15.2677C178.025 14.5827 178.412 13.5737 178.412 12.2377C178.412 10.9027 177.982 9.89274 177.121 9.20774C176.26 8.52274 174.899 8.17973 173.037 8.17973C172.51 8.17973 172.088 8.19873 171.772 8.23273C171.456 8.26873 171.105 8.32073 170.719 8.39073V16.2957H174.091ZM170.771 23.3047V33.4227C170.384 33.5277 169.778 33.6337 168.953 33.7387C168.127 33.8437 167.31 33.8967 166.502 33.8967C165.694 33.8967 164.983 33.8347 164.368 33.7127C163.753 33.5897 163.243 33.3697 162.84 33.0537C162.436 32.7377 162.129 32.2987 161.918 31.7357C161.707 31.1747 161.602 30.4367 161.602 29.5227V4.70173C161.602 3.96373 161.803 3.39373 162.208 2.98973C162.611 2.58573 163.165 2.26073 163.868 2.01473C165.061 1.59273 166.45 1.28573 168.031 1.09173C169.612 0.899734 171.298 0.802734 173.09 0.802734C177.938 0.802734 181.592 1.82173 184.051 3.85873C186.51 5.89673 187.74 8.65473 187.74 12.1327C187.74 14.3117 187.178 16.1727 186.054 17.7187C184.929 19.2647 183.594 20.4587 182.049 21.3017C183.313 23.0237 184.56 24.6397 185.79 26.1497C187.019 27.6617 187.985 29.0317 188.689 30.2607C188.337 31.4907 187.696 32.4307 186.765 33.0797C185.834 33.7297 184.789 34.0547 183.629 34.0547C182.856 34.0547 182.188 33.9667 181.627 33.7917C181.065 33.6167 180.573 33.3697 180.151 33.0537C179.73 32.7377 179.343 32.3517 178.992 31.8947C178.641 31.4387 178.307 30.9457 177.991 30.4187L173.564 23.3047H170.771Z" fill="#21C1E0"/>
<path d="M202.916 33.4226C202.529 33.5276 201.923 33.6336 201.098 33.7386C200.272 33.8436 199.455 33.8966 198.648 33.8966C197.839 33.8966 197.127 33.8346 196.513 33.7126C195.898 33.5896 195.38 33.3696 194.958 33.0536C194.537 32.7376 194.221 32.2986 194.01 31.7356C193.799 31.1746 193.694 30.4366 193.694 29.5226V1.69763C194.08 1.62763 194.695 1.53163 195.538 1.40863C196.381 1.28563 197.189 1.22363 197.962 1.22363C198.77 1.22363 199.481 1.28563 200.097 1.40863C200.711 1.53163 201.23 1.75063 201.651 2.06663C202.073 2.38263 202.389 2.82263 202.6 3.38463C202.811 3.94663 202.916 4.68463 202.916 5.59763V33.4226Z" fill="#21C1E0"/>
<path d="M238.698 32.5266C238.206 33.0186 237.494 33.3956 236.564 33.6596C235.632 33.9226 234.517 34.0546 233.217 34.0546C231.917 34.0546 230.688 33.8616 229.529 33.4756C228.369 33.0886 227.421 32.1576 226.683 30.6816L221.466 20.0366C220.939 18.9486 220.464 17.9206 220.043 16.9546C219.621 15.9886 219.164 14.8726 218.672 13.6076L218.356 13.6606C218.496 15.5576 218.575 17.4906 218.594 19.4576C218.611 21.4256 218.62 23.3576 218.62 25.2536V33.4226C218.233 33.5276 217.645 33.6336 216.854 33.7386C216.064 33.8436 215.282 33.8966 214.509 33.8966C213.736 33.8966 213.051 33.8436 212.454 33.7386C211.856 33.6336 211.365 33.4226 210.979 33.1066C210.592 32.7896 210.294 32.3606 210.083 31.8156C209.872 31.2706 209.767 30.5596 209.767 29.6806V3.33163C210.258 2.62963 211.013 2.10263 212.033 1.75063C213.051 1.39963 214.14 1.22363 215.3 1.22363C216.599 1.22363 217.838 1.42663 219.015 1.82963C220.192 2.23363 221.131 3.15663 221.835 4.59663L227.104 15.2416C227.631 16.3306 228.106 17.3586 228.527 18.3246C228.949 19.2906 229.405 20.4056 229.897 21.6706L230.161 21.6176C230.02 19.7206 229.932 17.8236 229.897 15.9266C229.862 14.0296 229.845 12.1326 229.845 10.2356V1.69763C230.231 1.59263 230.82 1.48763 231.61 1.38163C232.401 1.27663 233.182 1.22363 233.955 1.22363C235.501 1.22363 236.677 1.49663 237.486 2.04063C238.294 2.58563 238.698 3.71863 238.698 5.43963V32.5266Z" fill="#21C1E0"/>
<path d="M244.072 9.07702C243.826 8.69102 243.598 8.16402 243.387 7.49602C243.176 6.82902 243.071 6.12602 243.071 5.38802C243.071 4.01802 243.378 3.03502 243.993 2.43702C244.607 1.84002 245.407 1.54102 246.391 1.54102H269.367C269.613 1.92802 269.842 2.45502 270.052 3.12202C270.263 3.79002 270.369 4.49202 270.369 5.23002C270.369 6.60002 270.06 7.58402 269.446 8.18102C268.831 8.77902 268.032 9.07702 267.048 9.07702H261.199V33.424C260.812 33.529 260.206 33.634 259.381 33.74C258.555 33.845 257.738 33.898 256.93 33.898C256.122 33.898 255.41 33.836 254.796 33.713C254.181 33.591 253.663 33.371 253.241 33.055C252.82 32.738 252.504 32.3 252.293 31.737C252.082 31.176 251.977 30.438 251.977 29.524V9.07702H244.072Z" fill="#21C1E0"/>
<path d="M283.49 20.9337C281.943 20.4067 280.539 19.8717 279.274 19.3267C278.009 18.7817 276.92 18.1237 276.007 17.3507C275.093 16.5777 274.381 15.6557 273.872 14.5837C273.363 13.5117 273.108 12.2037 273.108 10.6577C273.108 7.67173 274.259 5.28273 276.56 3.49073C278.861 1.69873 282.084 0.802734 286.23 0.802734C287.74 0.802734 289.146 0.907734 290.446 1.11873C291.745 1.32973 292.861 1.65473 293.792 2.09373C294.723 2.53373 295.452 3.09473 295.979 3.78073C296.506 4.46573 296.77 5.26473 296.77 6.17773C296.77 7.09173 296.559 7.87373 296.138 8.52373C295.716 9.17373 295.206 9.72673 294.609 10.1837C293.836 9.69173 292.799 9.26074 291.5 8.89174C290.2 8.52374 288.777 8.33873 287.231 8.33873C285.651 8.33873 284.491 8.55873 283.753 8.99773C283.016 9.43773 282.647 9.99073 282.647 10.6577C282.647 11.1847 282.875 11.6157 283.332 11.9487C283.788 12.2827 284.473 12.5897 285.387 12.8707L288.18 13.7667C291.482 14.8207 294.02 16.1647 295.795 17.7977C297.569 19.4317 298.456 21.6537 298.456 24.4647C298.456 27.4507 297.279 29.8657 294.925 31.7107C292.571 33.5547 289.111 34.4777 284.544 34.4777C282.928 34.4777 281.425 34.3457 280.038 34.0817C278.65 33.8187 277.438 33.4327 276.402 32.9227C275.365 32.4137 274.558 31.7817 273.978 31.0257C273.398 30.2707 273.108 29.4007 273.108 28.4167C273.108 27.3987 273.407 26.5287 274.004 25.8087C274.601 25.0887 275.251 24.5357 275.954 24.1477C276.937 24.9217 278.141 25.5887 279.564 26.1507C280.987 26.7137 282.541 26.9937 284.228 26.9937C285.948 26.9937 287.161 26.7307 287.864 26.2037C288.566 25.6767 288.918 25.0617 288.918 24.3587C288.918 23.6567 288.636 23.1207 288.075 22.7517C287.512 22.3827 286.722 22.0227 285.703 21.6717L283.49 20.9337Z" fill="#21C1E0"/>
</g>
<defs>
<clipPath id="clip0_134_26">
<rect width="299" height="35" fill="white"/>
</clipPath>
</defs>
</svg>
